<svg width="72" height="72" fill="none" xmlns="http://www.w3.org/2000/svg"><circle cx="44" cy="44" r="28" fill="#2C6269"/><path fill-rule="evenodd" clip-rule="evenodd" d="M14.5 0h14c5.66 0 10.26 4.6 10.26 10.27v4.66a3.74 3.74 0 0 1 0 7.47h-.21a11.18 11.18 0 0 1-5.39 8.7v1.57h2.95a4.52 4.52 0 0 1 4.52 4.72l.12.01a8.44 8.44 0 0 1 7.35 8.33V56h-1.87V45.73a6.55 6.55 0 0 0-5.67-6.47l-.4-.03-.28.49-4.85 7.23V56h-1.87V42.96a9.39 9.39 0 0 1-11.2 0V56H20.1v-9.05l-4.85-7.23c-.1-.16-.2-.32-.28-.49l-.47.03a6.54 6.54 0 0 0-5.6 6.47V56H7.03V45.73c0-4.19 3.13-7.77 7.29-8.32l.18-.02v-.22c0-2.48 2.02-4.5 4.51-4.5h2.95v-1.54a11 11 0 0 1-5.37-8.54l-.01-.19h-.22a3.74 3.74 0 0 1 0-7.47v-4.36a6.54 6.54 0 0 1-3.73-5.9c0-.52.42-.94.93-.94h.5a3.7 3.7 0 0 1-.5-1.86V.93c0-.51.42-.93.94-.93Zm18.66 35.67v-1.14h2.95a2.66 2.66 0 0 1 2.65 2.66c0 .54-.14 1.05-.44 1.5l-3.3 4.9v-6.05a.93.93 0 0 0-.92-.93h-.16a.93.93 0 0 1-.78-.94Zm-3.65-3.17c.62-.12 1.21-.29 1.79-.5v3.66a2.8 2.8 0 0 0 1.86 2.67v2.12a7.52 7.52 0 0 1-11.2 0v-2.12a2.8 2.8 0 0 0 1.87-2.66v-3.66a10.97 10.97 0 0 0 5.68.49Zm-9.41 5.04v6.06l-3.3-4.92c-.29-.44-.44-.95-.44-1.5a2.65 2.65 0 0 1 2.65-2.65h2.95v1.15c0 .46-.32.85-.77.93h-.16a.93.93 0 0 0-.93.93ZM35.13 11.2h1.77v2.86a5.52 5.52 0 0 1-1.77-2.86Zm-1.9 0c.41 2.84 2.64 4.55 3.67 5.2v3.13l-.2 2.54a9.33 9.33 0 0 1-7.53 8.6 9.17 9.17 0 0 1-10.72-8.23l-.22-2.84v-3.2c1.03-.65 3.25-2.36 3.67-5.2h11.33Zm-16.87 5.6v2.87l.07.86h-.07a1.87 1.87 0 0 1 0-3.73ZM20 11.2a5.52 5.52 0 0 1-1.77 2.86v-2.93c.3.05.62.07.93.07H20Zm18.76 8.4v-2.8a1.87 1.87 0 0 1 0 3.73h-.07l.07-.93ZM14.6 5.6a4.67 4.67 0 0 0 4.57 3.73h17.68a8.41 8.41 0 0 0-8.34-7.46H15.43c0 1.03.84 1.86 1.87 1.86a.93.93 0 0 1 0 1.87h-2.71Zm9.24 12.13a1.87 1.87 0 1 1-3.73 0 1.87 1.87 0 0 1 3.73 0Zm9.33 1.87a1.87 1.87 0 1 0 0-3.73 1.87 1.87 0 0 0 0 3.73Zm-6.09.93 1.36-3.38-1.73-.7-1.87 4.67a.93.93 0 0 0 .87 1.28h2.8v-1.87h-1.43Zm-1.22 3.74c1.46 0 2.82-.57 3.85-1.6L31.02 24a7.27 7.27 0 0 1-5.17 2.14h-.15v-1.86h.15ZM17.3 47.6a.93.93 0 1 1 1.86 0v5.6a.93.93 0 1 1-1.86 0v-5.6Zm18.66 0a.93.93 0 1 1 1.87 0v5.6a.93.93 0 1 1-1.87 0v-5.6Z" fill="#79C8C7"/></svg>