<svg width="72" height="72" fill="none" xmlns="http://www.w3.org/2000/svg"><circle cx="44" cy="44" r="28" fill="#2C6269"/><path fill-rule="evenodd" clip-rule="evenodd" d="M33.9 53.81c0 1.2-.98 2.19-2.18 2.19h-7.44c-1.2 0-2.19-.98-2.19-2.19v-3.26a23.1 23.1 0 0 1-5.85-2.43l-2.32 2.3c-.85.86-2.24.86-3.09 0l-5.26-5.25a2.19 2.19 0 0 1 0-3.1l2.31-2.3a23.1 23.1 0 0 1-2.43-5.86H2.2C.99 33.9 0 32.92 0 31.7v-7.43c0-1.2.98-2.19 2.19-2.19h3.26a23.1 23.1 0 0 1 2.42-5.86l-2.3-2.3a2.19 2.19 0 0 1 0-3.1l5.26-5.26a2.19 2.19 0 0 1 3.1 0l2.29 2.3a23.1 23.1 0 0 1 5.87-2.44V2.19c0-1.2.99-2.19 2.2-2.19h7.43c1.2 0 2.19.98 2.19 2.19v3.23c2.06.54 4.04 1.35 5.88 2.43l2.29-2.28a2.19 2.19 0 0 1 3.09 0l5.26 5.26c.85.85.85 2.24 0 3.1l-2.28 2.28a23.12 23.12 0 0 1 2.43 5.88h3.23c1.2 0 2.19.99 2.19 2.2v7.43c0 1.2-.98 2.19-2.19 2.19h-3.24a23.12 23.12 0 0 1-2.43 5.87l2.29 2.3c.85.85.85 2.24 0 3.09l-5.26 5.26c-.85.85-2.24.85-3.1 0l-2.3-2.3a23.12 23.12 0 0 1-5.86 2.42v3.26Zm-17.83-8.17c.2 0 .4.06.59.17a20.94 20.94 0 0 0 6.76 2.8c.5.12.86.56.86 1.08v4.12h7.44V49.7c0-.51.36-.96.86-1.07a20.96 20.96 0 0 0 6.77-2.8c.43-.27 1-.21 1.36.15l2.91 2.91 5.26-5.26-2.9-2.9a1.1 1.1 0 0 1-.15-1.36 20.95 20.95 0 0 0 2.82-6.78c.1-.5.55-.86 1.06-.86h4.1v-7.44h-4.09a1.1 1.1 0 0 1-1.07-.86 20.94 20.94 0 0 0-2.81-6.79 1.1 1.1 0 0 1 .15-1.36l2.9-2.9-5.27-5.25-2.89 2.9a1.1 1.1 0 0 1-1.36.14 20.95 20.95 0 0 0-6.8-2.81 1.1 1.1 0 0 1-.85-1.07v-4.1h-7.44v4.1c0 .52-.36.96-.86 1.07-2.41.54-4.7 1.49-6.78 2.82-.43.28-1 .21-1.36-.15l-2.9-2.9-5.26 5.26 2.9 2.9c.37.37.43.94.16 1.37a20.96 20.96 0 0 0-2.8 6.77c-.11.5-.56.86-1.07.86H2.19v7.44H6.3c.52 0 .96.36 1.07.86.53 2.4 1.48 4.68 2.8 6.76.28.43.22 1-.14 1.36l-2.92 2.92 5.26 5.26 2.92-2.92c.2-.21.49-.32.77-.32Zm.64-6.35A15.92 15.92 0 0 0 28 43.96a15.95 15.95 0 0 0 14.29-23.1 1.1 1.1 0 1 0-1.96.98A13.77 13.77 0 0 1 28 41.77c-3.53 0-7.06-1.34-9.74-4.02a13.8 13.8 0 0 1 16.48-21.78 1.1 1.1 0 1 0 1.07-1.9 16.08 16.08 0 0 0-9.9-1.9 15.99 15.99 0 0 0-9.2 27.12Zm22.05-20.48a1.1 1.1 0 0 1-1.1-1.09 1.1 1.1 0 0 1 1.1-1.1 1.1 1.1 0 0 1 1.1 1.1 1.1 1.1 0 0 1-1.1 1.1Zm-12.3 17.25a1.1 1.1 0 0 1-.78-.32l-6.91-6.92a1.1 1.1 0 0 1 0-1.55l3.92-3.92a1.1 1.1 0 0 1 1.55 0l2.22 2.22 5.3-5.3a1.1 1.1 0 0 1 1.55 0l3.92 3.92a1.1 1.1 0 0 1 0 1.54l-10 10c-.2.21-.48.33-.77.33Zm-5.37-8.01 5.37 5.37 8.45-8.46-2.37-2.38-5.31 5.31a1.1 1.1 0 0 1-1.55 0l-2.22-2.22-2.37 2.38Z" fill="#79C8C7"/></svg>