<svg width="72" height="72" fill="none" xmlns="http://www.w3.org/2000/svg"><circle cx="44" cy="44" r="28" fill="#2C6269"/><path fill-rule="evenodd" clip-rule="evenodd" d="M44.33 4.67a4.67 4.67 0 1 1 2.3 4.02l-7.61 7.6a4.67 4.67 0 1 1-8.62 1.6l-5.38-1.53a4.67 4.67 0 0 1-6.82 1.37l-7.12 5.67a4.67 4.67 0 1 1-1.61-1.7l7.27-5.8a4.67 4.67 0 1 1 8.92-1.79l5.7 1.63a4.66 4.66 0 0 1 6.01-1.1l7.61-7.6c-.41-.7-.65-1.5-.65-2.37ZM19.23 15.5a1.19 1.19 0 0 0-.1-.11 2.34 2.34 0 1 1 .09.11ZM8.6 23.98a2.32 2.32 0 0 0-3.94 1.69 2.34 2.34 0 1 0 3.94-1.69ZM47.4 6.36a1.22 1.22 0 0 0-.1-.1A2.33 2.33 0 0 1 49 2.34a2.34 2.34 0 1 1-1.6 4.03Zm5.1 12.3c.64 0 1.17.53 1.17 1.17v33.84h1.16a1.17 1.17 0 0 1 0 2.33H1.17a1.17 1.17 0 0 1 0-2.33h1.16V40.83c0-.64.53-1.16 1.17-1.16h7c.64 0 1.17.52 1.17 1.16v12.84h4.66v-24.5c0-.65.53-1.17 1.17-1.17h7c.64 0 1.17.52 1.17 1.17v24.5h4.66V33.83c0-.64.53-1.16 1.17-1.16h7c.64 0 1.17.52 1.17 1.16v19.84h4.66V19.83c0-.64.53-1.16 1.17-1.16h7ZM51.33 21v32.67h-4.66V21h4.66Zm-14 32.67V35h-4.66v18.67h4.66ZM18.67 30.33h4.66v23.34h-4.66V30.33ZM9.33 53.67V42H4.67v11.67h4.66ZM35 21a2.34 2.34 0 1 1 0-4.67A2.34 2.34 0 0 1 35 21Z" fill="#79C8C7"/></svg>