<svg width="200" height="100" fill="none" xmlns="http://www.w3.org/2000/svg"><path fill="#2C6269" d="M100 100h100V0H100z"/><path fill-rule="evenodd" clip-rule="evenodd" d="M100 200C44.77 200 0 155.23 0 100S44.77 0 100 0s100 44.77 100 100-44.77 100-100 100Zm0-67a33 33 0 1 1 0-66 33 33 0 0 1 0 66Z" fill="#012F34"/><path fill-rule="evenodd" clip-rule="evenodd" d="M100 56h100v4H100v-4Zm0 8h100v4H100v-4Zm100 8H100v4h100v-4Zm-100 8h100v4H100v-4Zm100 8H100v4h100v-4Zm-100 8h100v4H100v-4Z" fill="#79C8C7"/></svg>