<svg width="67" height="56" fill="none" xmlns="http://www.w3.org/2000/svg"><path fill-rule="evenodd" clip-rule="evenodd" d="M26.46 52.03C23.64 54.68 19.91 56 15.27 56c-4.73 0-8.47-1.48-11.19-4.43C1.36 48.62 0 44.45 0 39.07c0-3.67.86-7.84 2.57-12.52a78.4 78.4 0 0 1 6.88-14.04A65.37 65.37 0 0 1 19.35 0H31a88.63 88.63 0 0 0-3.93 11.14c-.9 3.36-1.36 6.4-1.36 9.15 0 3.16.4 5.85 1.2 8.1.81 2.23 1.65 4.42 2.5 6.55a20.46 20.46 0 0 1 1.29 7.63c0 3.66-1.41 6.82-4.24 9.46Zm36 0C59.64 54.68 55.91 56 51.27 56c-4.74 0-8.47-1.48-11.19-4.43-2.72-2.95-4.08-7.12-4.08-12.5 0-3.67.86-7.84 2.57-12.52a78.4 78.4 0 0 1 6.88-14.04A65.37 65.37 0 0 1 55.35 0H67a88.63 88.63 0 0 0-3.93 11.14c-.9 3.36-1.36 6.4-1.36 9.15 0 3.16.4 5.85 1.2 8.1.81 2.23 1.65 4.42 2.5 6.55a20.46 20.46 0 0 1 1.29 7.63c0 3.66-1.41 6.82-4.24 9.46Z" fill="#2C6269"/></svg>