<svg width="358" height="100" fill="none" xmlns="http://www.w3.org/2000/svg"><circle cx="100" cy="100" r="100" fill="#2C6269"/><path fill-rule="evenodd" clip-rule="evenodd" d="M258 200c55.23 0 100-44.77 100-100S313.23 0 258 0 158 44.77 158 100s44.77 100 100 100Zm0-67a33 33 0 1 0 0-66 33 33 0 0 0 0 66Z" fill="#012F34"/><path fill="#79C8C7" d="M358 43h-43V0h43z"/><path fill-rule="evenodd" clip-rule="evenodd" d="M233.51 200c55.23 0 100-44.77 100-100S288.74 0 233.51 0c-55.22 0-100 44.77-100 100s44.78 100 100 100Zm0-67a33 33 0 1 0 0-66 33 33 0 0 0 0 66Z" fill="#F67E7E"/><path fill-rule="evenodd" clip-rule="evenodd" d="M100 0H0v4h100V0Zm0 8H0v4h100V8ZM0 16h100v4H0v-4Zm100 8H0v4h100v-4ZM0 32h100v4H0v-4Zm100 8H0v4h100v-4Z" fill="#79C8C7"/></svg>